HIERARCHY
ROOT Hips
{
 OFFSET 0.000000 0.000000 0.000000
 CHANNELS 6 Xposition Yposition Zposition Yrotation Xrotation Zrotation
 JOINT Chest
 {
  OFFSET 0.000000 9.585900 0.002600
  CHANNELS 3 Yrotation Xrotation Zrotation
  JOINT Chest2
  {
   OFFSET 0.000000 9.601200 -0.005300
   CHANNELS 3 Yrotation Xrotation Zrotation
   JOINT Chest3
   {
    OFFSET 0.000000 9.561800 0.000000
    CHANNELS 3 Yrotation Xrotation Zrotation
    JOINT Chest4
    {
     OFFSET 0.000000 9.552100 0.000000
     CHANNELS 3 Yrotation Xrotation Zrotation
     JOINT Neck
     {
      OFFSET 0.000000 14.453000 0.000000
      CHANNELS 3 Yrotation Xrotation Zrotation
      JOINT Head
      {
       OFFSET 0.000000 8.936500 -0.011300
       CHANNELS 3 Yrotation Xrotation Zrotation
       End Site
       {
        OFFSET 0.000000 17.073600 -0.006000
       }
      }
     }
     JOINT RightCollar
     {
      OFFSET -2.921100 9.558500 0.000000
      CHANNELS 3 Yrotation Xrotation Zrotation
      JOINT RightShoulder
      {
       OFFSET -13.519700 0.000000 0.000000
       CHANNELS 3 Yrotation Xrotation Zrotation
       JOINT RightElbow
       {
        OFFSET 0.000000 -29.696600 0.000000
        CHANNELS 3 Yrotation Xrotation Zrotation
        JOINT RightWrist
        {
         OFFSET 0.000000 -24.004700 0.000000
         CHANNELS 3 Yrotation Xrotation Zrotation
         End Site
         {
          OFFSET 0.000000 -17.728500 0.000000
         }
        }
       }
      }
     }
     JOINT LeftCollar
     {
      OFFSET 2.921100 9.558500 0.000000
      CHANNELS 3 Yrotation Xrotation Zrotation
      JOINT LeftShoulder
      {
       OFFSET 13.519700 0.000000 0.000000
       CHANNELS 3 Yrotation Xrotation Zrotation
       JOINT LeftElbow
       {
        OFFSET 0.000000 -29.696600 0.000000
        CHANNELS 3 Yrotation Xrotation Zrotation
        JOINT LeftWrist
        {
         OFFSET 0.000000 -24.004700 0.000000
         CHANNELS 3 Yrotation Xrotation Zrotation
         End Site
         {
          OFFSET 0.000000 -17.728500 0.000000
         }
        }
       }
      }
     }
    }
   }
  }
 }
 JOINT RightHip
 {
  OFFSET -7.771700 -0.012900 -0.001300
  CHANNELS 3 Yrotation Xrotation Zrotation
  JOINT RightKnee
  {
   OFFSET 0.000000 -40.869800 0.001200
   CHANNELS 3 Yrotation Xrotation Zrotation
   JOINT RightAnkle
   {
    OFFSET 0.000000 -39.717900 0.002100
    CHANNELS 3 Yrotation Xrotation Zrotation
    JOINT RightToe
    {
     OFFSET 0.000000 -4.965400 11.033500
     CHANNELS 3 Yrotation Xrotation Zrotation
     End Site
     {
      OFFSET 0.000000 -1.423100 5.872300
     }
    }
   }
  }
 }
 JOINT LeftHip
 {
  OFFSET 7.771700 -0.012900 -0.001300
  CHANNELS 3 Yrotation Xrotation Zrotation
  JOINT LeftKnee
  {
   OFFSET 0.000000 -40.869800 0.001200
   CHANNELS 3 Yrotation Xrotation Zrotation
   JOINT LeftAnkle
   {
    OFFSET 0.000000 -39.717900 0.002100
    CHANNELS 3 Yrotation Xrotation Zrotation
    JOINT LeftToe
    {
     OFFSET 0.000000 -4.965400 11.033500
     CHANNELS 3 Yrotation Xrotation Zrotation
     End Site
     {
      OFFSET 0.000000 -1.423100 5.872300
     }
    }
   }
  }
 }
}
MOTION
Frames: 11
Frame Time: 0.008333
0.000000 85.388000 0.000000 0.000000 -5.767877 0.000000 0.000000 11.653817 0.000000 0.000000 -5.885947 0.000000 0.000000 -0.000000 0.000000 0.000000 -0.000000 0.000000 0.000000 12.528835 0.000000 0.000000 0.711642 0.000000 0.000000 -0.000000 0.000000 0.000000 0.000000 -90.000000 0.000000 -2.309062 0.000000 0.000000 2.309062 0.000000 0.000000 -0.000000 0.000000 0.000000 -0.000000 90.000000 0.000000 -2.309062 0.000000 0.000000 2.309062 0.000000 0.000000 8.520406 0.000000 0.000000 1.905762 0.000000 -0.000000 -4.658285 0.000000 0.000000 -0.000000 0.000000 0.000000 8.520406 0.000000 0.000000 1.905762 0.000000 -0.000000 -4.658285 0.000000 0.000000 -0.000000 0.000000
1.648269 49.740202 27.743337 177.254871 -31.622363 -6.514245 5.117308 20.794791 6.746754 0.545844 2.848730 0.643420 0.905298 4.631359 1.061571 4.051826 17.668310 4.595956 -4.173321 11.221883 -3.790100 -6.366821 -15.001760 -5.464044 1.162885 -3.715525 -4.992988 8.300844 -18.669243 -9.485898 -120.725042 -74.431050 114.283869 -4.015941 -2.241116 9.837035 -14.340955 -3.885355 -1.051865 -3.705606 -22.136005 2.027571 90.922718 -68.625125 -94.938666 29.432524 -1.970148 -5.194533 -2.147292 -47.756614 7.499214 -130.133177 80.782480 -117.972462 -0.317804 -17.277568 -4.183702 -0.203921 1.177431 -0.128884 -9.077204 -52.219490 12.915833 -165.271532 78.863534 -172.099166 1.685618 -17.592371 6.093388 -0.058656 -0.158271 -0.019102
1.655076 49.740019 27.743328 177.258370 -31.623303 -6.506631 5.117601 20.914604 6.771269 0.546964 2.881615 0.650103 0.906933 4.681986 1.072093 4.040771 17.754548 4.612187 -4.037706 11.200799 -3.776113 -6.112282 -15.039737 -5.495872 1.227541 -3.710236 -4.999177 8.369574 -18.935115 -9.744016 -119.296384 -74.634718 112.588994 -4.063363 -2.329243 9.659157 -14.390874 -3.907653 -1.030634 -3.796300 -22.292582 2.058633 90.652835 -68.567973 -94.447667 29.405143 -2.056571 -5.052288 -2.220789 -47.747509 7.510810 -130.230167 80.793515 -118.073241 -0.307841 -17.269265 -4.220461 -0.190604 1.159369 -0.130763 -8.995390 -52.219171 12.919814 -165.092188 78.860856 -171.935533 1.627923 -17.598432 6.146591 -0.057662 -0.153862 -0.001673
1.662953 49.741376 27.742325 177.272182 -31.630388 -6.503255 5.113385 21.042164 6.796885 0.548340 2.914072 0.657234 0.908968 4.731942 1.083281 4.031985 17.838205 4.631302 -3.902385 11.183518 -3.751878 -5.862700 -15.070316 -5.508062 1.296419 -3.687354 -5.003907 8.433733 -19.190700 -10.011837 -117.862963 -74.820216 110.886970 -4.072678 -2.401906 9.457442 -14.436003 -3.923264 -1.012091 -3.920926 -22.454234 2.096863 90.361553 -68.557138 -93.901260 29.347181 -2.086867 -5.048498 -2.294022 -47.730642 7.515636 -130.349655 80.808525 -118.187771 -0.315190 -17.255614 -4.245320 -0.162971 1.131564 -0.151822 -8.921599 -52.207130 12.929245 -164.844866 78.859483 -171.712422 1.580709 -17.612253 6.184245 -0.059367 -0.145128 0.029243
1.672759 49.742623 27.743901 177.287729 -31.620701 -6.509397 5.113320 21.151960 6.832389 0.550080 2.946324 0.664920 0.911597 4.781618 1.095391 4.026201 17.919828 4.654143 -3.770684 11.169040 -3.721983 -5.622640 -15.095525 -5.507831 1.365729 -3.648601 -5.010831 8.502685 -19.431673 -10.284368 -116.422389 -74.970945 109.163784 -4.055985 -2.465790 9.255898 -14.476321 -3.930523 -0.997112 -4.070320 -22.624665 2.143100 90.047189 -68.600367 -93.312458 29.257314 -2.065095 -5.135070 -2.374920 -47.727292 7.530285 -130.430716 80.825954 -118.257830 -0.307179 -17.243612 -4.293448 -0.160226 1.115162 -0.145198 -8.869474 -52.213609 12.963897 -164.527621 78.855404 -171.425971 1.537485 -17.614524 6.261822 -0.054687 -0.148257 0.011206
1.684183 49.747845 27.741535 177.317509 -31.639671 -6.532043 5.112003 21.286202 6.881445 0.552677 2.978685 0.673093 0.915633 4.831323 1.108312 4.026135 17.999912 4.680312 -3.644284 11.157411 -3.689171 -5.394038 -15.115363 -5.499852 1.426620 -3.596767 -5.020773 8.577511 -19.655076 -10.550335 -114.963684 -75.074547 107.414489 -4.029122 -2.522880 9.079092 -14.512864 -3.928357 -0.986613 -4.229567 -22.801493 2.198945 89.710254 -68.687065 -92.706079 29.150253 -2.007919 -5.255056 -2.436781 -47.694497 7.530300 -130.580024 80.852812 -118.317295 -0.443441 -17.196027 -4.419043 -0.000234 1.049923 -0.072813 -8.845743 -52.183268 13.007915 -164.177457 78.850150 -171.106496 1.514598 -17.622523 6.307110 -0.050055 -0.148268 0.014545
1.694658 49.751723 27.743188 177.317332 -31.634726 -6.539092 5.134138 21.386947 6.926504 0.556105 3.011592 0.681565 0.921113 4.881686 1.121679 4.031104 18.079778 4.707969 -3.522665 11.148553 -3.653305 -5.175931 -15.130025 -5.484009 1.478820 -3.532954 -5.033143 8.646927 -19.865528 -10.797797 -113.478696 -75.125469 105.642563 -4.000889 -2.567232 8.948510 -14.547100 -3.918583 -0.979947 -4.384466 -22.984666 2.267893 89.326789 -68.791740 -92.080559 29.048548 -1.943958 -5.360204 -2.477346 -47.690921 7.543661 -130.663666 80.878172 -118.366464 -0.468823 -17.179976 -4.472486 0.037955 1.036281 -0.053328 -8.835780 -52.176264 13.058838 -163.861080 78.848880 -170.822898 1.535306 -17.634567 6.295579 -0.070599 -0.143676 0.047578
1.700953 49.755703 27.745134 177.307156 -31.628582 -6.524381 5.160750 21.482342 6.954044 0.559847 3.045313 0.689971 0.927138 4.933330 1.134882 4.037509 18.161053 4.734487 -3.404537 11.140751 -3.613851 -4.966022 -15.142596 -5.459773 1.528526 -3.462536 -5.050056 8.697604 -20.067016 -11.018691 -111.964416 -75.132363 103.847588 -3.980575 -2.595109 8.878105 -14.576974 -3.906880 -0.976456 -4.526300 -23.174674 2.349311 88.876744 -68.887574 -91.429949 28.965872 -1.898907 -5.414167 -2.544406 -47.680894 7.538677 -130.835448 80.935195 -118.534110 -0.435083 -17.163218 -4.532159 0.018200 1.040107 -0.037278 -8.749371 -52.174359 13.073204 -163.380052 78.846848 -170.377519 1.528686 -17.637598 6.366524 -0.074087 -0.142077 0.045052
1.710685 49.762283 27.744622 177.303004 -31.645331 -6.544562 5.202288 21.595535 7.019111 0.563813 3.079409 0.698264 0.933387 4.985562 1.147858 4.044768 18.242697 4.759936 -3.290530 11.134228 -3.570098 -4.765862 -15.152802 -5.425403 1.575422 -3.389373 -5.071408 8.725599 -20.259681 -11.211925 -110.436398 -75.112570 102.045911 -3.974158 -2.611007 8.868434 -14.605732 -3.895519 -0.973851 -4.654872 -23.365104 2.444287 88.382290 -68.950906 -90.774328 28.904849 -1.881876 -5.396909 -2.572823 -47.658564 7.563601 -130.927634 80.966776 -118.579111 -0.489575 -17.126172 -4.576961 0.068323 1.012196 -0.018727 -8.653848 -52.150496 13.102266 -162.938187 78.836654 -169.937278 1.498404 -17.645967 6.436112 -0.061958 -0.137168 0.056347
1.715696 49.766514 27.746761 177.294288 -31.643974 -6.548841 5.243218 21.689130 7.067881 0.568448 3.113408 0.706592 0.940654 5.037501 1.160990 4.056014 18.322774 4.786132 -3.182564 11.130768 -3.521426 -4.579621 -15.157505 -5.378829 1.615002 -3.314442 -5.096337 8.737513 -20.442467 -11.380433 -108.929630 -75.082926 100.271259 -3.976671 -2.617926 8.905781 -14.642159 -3.886900 -0.970958 -4.776434 -23.543368 2.558395 87.876809 -68.972942 -90.142316 28.862432 -1.898507 -5.304510 -2.610796 -47.653573 7.570705 -131.093245 81.019958 -118.714858 -0.514459 -17.094052 -4.622947 0.088530 0.995602 -0.010995 -8.587060 -52.146541 13.116526 -162.621426 78.834297 -169.625774 1.488049 -17.647851 6.451522 -0.061838 -0.137899 0.075188
1.709328 49.768094 27.749587 177.277208 -31.633321 -6.496091 5.270873 21.776118 7.057403 0.573846 3.147309 0.714917 0.949317 5.089236 1.174185 4.072180 18.401260 4.812868 -3.080642 11.130966 -3.467470 -4.407315 -15.155421 -5.319618 1.647985 -3.242332 -5.121582 8.738708 -20.612764 -11.528161 -107.468835 -75.055864 98.551699 -3.977826 -2.613363 8.959596 -14.686851 -3.885571 -0.968334 -4.899324 -23.701991 2.694770 87.383072 -68.962668 -89.548291 28.833544 -1.947126 -5.150573 -2.613507 -47.663000 7.484084 -131.425852 81.100450 -119.034799 -0.479313 -17.047242 -4.661419 0.048311 0.972014 -0.033012 -8.491219 -52.135682 13.053161 -162.368835 78.871372 -169.430738 1.521292 -17.652584 6.502968 -0.101465 -0.126832 0.063555
